<?xml version="1.0" encoding="utf-8"?>
<!-- Generator: Adobe Illustrator 21.0.1, SVG Export Plug-In . SVG Version: 6.00 Build 0)  -->
<svg version="1.1" id="Layer_1" xmlns="http://www.w3.org/2000/svg" xmlns:xlink="http://www.w3.org/1999/xlink" x="0px" y="0px"
	 viewBox="0 0 500 300" style="enable-background:new 0 0 500 300;" xml:space="preserve">
<style type="text/css">
	.st0{fill-rule:evenodd;clip-rule:evenodd;fill:none;stroke:#333333;stroke-width:8;stroke-linecap:square;stroke-miterlimit:3;}
	
		.st1{fill-rule:evenodd;clip-rule:evenodd;fill:none;stroke:#333333;stroke-width:8;stroke-linecap:round;stroke-linejoin:round;stroke-miterlimit:3;}
	
		.st2{fill-rule:evenodd;clip-rule:evenodd;fill:none;stroke:#333333;stroke-width:8;stroke-linecap:square;stroke-linejoin:round;stroke-miterlimit:3;}
	.st3{fill-rule:evenodd;clip-rule:evenodd;fill:none;stroke:#333333;stroke-width:8;stroke-linecap:round;stroke-miterlimit:3;}
</style>
<g>
	<path class="st0" d="M184.3,184.3c-14.7-18.4-22-38.9-22-61.6c0-24,8.4-44.5,25.3-61.4c16.6-16.5,36.6-25,60.1-25.3
		c23.5,0.3,43.6,8.7,60.3,25.3c16.8,16.9,25.3,37.4,25.3,61.4c0,22.7-7.4,43.2-22.2,61.6l-35.6,38.2 M261.4,206.3l-5.2-6"/>
	<path class="st1" d="M218,155.8c-2.5-2.6-4.2-5.4-5.2-8.5c-1.1-3.1-1.4-6.5-1-10c0.4-7.1,3.3-13,8.7-17.6
		c5.3-4.5,11.5-6.4,18.4-5.8c4.1,0.2,7.8,1.3,11,3.4c2.3,1.2,4.4,2.9,6.2,5.1l27.5,31.8"/>
	<line class="st2" x1="275.4" y1="222.5" x2="261.4" y2="206.3"/>
	<path class="st3" d="M256.2,200.3L218,155.8 M247.9,256.8l-63.6-72.5"/>
</g>
</svg>
